<svg width="28" height="29" viewBox="0 0 28 29" fill="none" xmlns="http://www.w3.org/2000/svg">
<path d="M18.1767 14.875C18.1767 17.185 16.31 19.0517 14 19.0517C11.69 19.0517 9.82333 17.185 9.82333 14.875C9.82333 12.565 11.69 10.6984 14 10.6984C16.31 10.6984 18.1767 12.565 18.1767 14.875Z" stroke="#001B79" stroke-width="1.5" stroke-linecap="round" stroke-linejoin="round"/>
<path d="M14 24.5233C18.1183 24.5233 21.9567 22.0966 24.6283 17.8966C25.6783 16.2516 25.6783 13.4866 24.6283 11.8416C21.9567 7.64163 18.1183 5.21497 14 5.21497C9.88167 5.21497 6.04333 7.64163 3.37167 11.8416C2.32167 13.4866 2.32167 16.2516 3.37167 17.8966C6.04333 22.0966 9.88167 24.5233 14 24.5233Z" stroke="#001B79" stroke-width="1.5" stroke-linecap="round" stroke-linejoin="round"/>
</svg>
