<svg width="66" height="70" viewBox="0 0 66 70" fill="none" xmlns="http://www.w3.org/2000/svg">
<path d="M3.5 3.79404V19.411V19.726V19.411C3.5 23.87 5.3375 27.818 8.1865 30.373C9.5795 31.6225 10.5 33.3095 10.5 35.182V61.25C10.5 64.148 12.852 66.5 15.75 66.5C18.648 66.5 21 64.148 21 61.25V35.182C21 33.3095 21.9205 31.6225 23.3135 30.373C26.1625 27.818 28 23.87 28 19.411V3.79404V19.411" stroke="#323232" stroke-width="6" stroke-linecap="round" stroke-linejoin="round"/>
<path d="M15.75 21V3.5" stroke="#323232" stroke-width="6" stroke-linecap="round" stroke-linejoin="round"/>
<path d="M63 7.18201C63 5.25001 61.432 3.68201 59.5 3.68201H56C50.2005 3.68201 45.5 8.38251 45.5 14.182V35.182C45.5 39.746 48.4295 43.5925 52.5 45.038V61.25C52.5 64.148 54.852 66.5 57.75 66.5C60.648 66.5 63 64.148 63 61.25V45.682V7.18201Z" stroke="#323232" stroke-width="6" stroke-linecap="round" stroke-linejoin="round"/>
</svg>
